# xmcd
#
# Track frame offsets:
#	150
#	11318
#	24354
#	37185
#	48733
#	57953
#	68184
#	79684
#	89189
#	101838
#	114139
#	124815
#	135750
#	150841
#	165448
#	179726
#	192404
#	197562
#	209086
#	223306
#	231172
#	242032
#	253516
#	266224
#	278498
#	292285
#	305426
#	322320
#	336714
#
# Disc length: 4649 seconds
#
# Revision: 2
# Processed by: cddbd v1.5.2PL0 Copyright (c) Steve Scherf et al.
# Submitted via: EasyCDDAExtractor 11.0.3.1
#
DISCID=bf12271d
DTITLE=Various Artist - Lost Sounds - Blacks And The Birth Of The Recording I
DTITLE=ndustry 1891-1922 - CD1
DYEAR=2005
DGENRE=Blues
TTITLE0=Unique Quartette - Mamma's Black Baby Boy
TTITLE1=Standard Quartette - Keep Movin'
TTITLE2=Unique Quartette - Who Broke The Lock
TTITLE3=Oriole Quartette - Brother Michael, Won't You Hand Down That Rope
TTITLE4=Cousins And DeMoss - Poor Mourner
TTITLE5=Cousins And DeMoss - Who Broke The Lock
TTITLE6=Dinwiddie Colored Quartette - Down on the Old Camp Ground
TTITLE7=Polk Miller's Old South Quartet - Jerusalem Mornin'
TTITLE8=Fisk University Jubilee Quartet - Little David, Play On Yo' Harp/Shout
TTITLE8=All Over God's Heaven
TTITLE9=Apollo Jubilee Quartette - Swing Low, Sweet Chariot
TTITLE10=Apollo Jubilee Quartette - Shout All Over God's Heaven
TTITLE11=Tuskegee Institute Singers - Good News
TTITLE12=Right Quintette - The Rain Song
TTITLE13=Four Harmony Kings - Goodnight Angeline
TTITLE14=Charley Case - Experiences In The Show Business
TTITLE15=George W. Johnson - The Whistling Coon
TTITLE16=Louis Vasnier - Adam And Eve And De Winter Apple (Excerpt)
TTITLE17=George W. Johnson - The Laughing Song
TTITLE18=Spencer, Williams And Quinn's Imperial Minstrels - Minstrel First Par
TTITLE18=t (Featuring 'The Laughing Song')
TTITLE19=George W. Johnson - Listen To The Mocking Bird
TTITLE20=George W. Johnson - The Laughing Coon
TTITLE21=George W. Johnson - The Whistling Girl
TTITLE22=Williams And Walker - My Little Zulu Babe
TTITLE23=George W. Johnson - Carving The Duck
TTITLE24=Len Spencer and George W. Johnson - The Merry Mail Man
TTITLE25=Bert Williams - Nobody
TTITLE26=Jack Johnson - My Own Story Of The Big Fight (Part 1)
TTITLE27=Opal Cooper - Beans, Beans, Beans
TTITLE28=Noble Sissle - Great Camp Meetin' Day
EXTD=
EXTT0=
EXTT1=
EXTT2=
EXTT3=
EXTT4=
EXTT5=
EXTT6=
EXTT7=
EXTT8=
EXTT9=
EXTT10=
EXTT11=
EXTT12=
EXTT13=
EXTT14=
EXTT15=
EXTT16=
EXTT17=
EXTT18=
EXTT19=
EXTT20=
EXTT21=
EXTT22=
EXTT23=
EXTT24=
EXTT25=
EXTT26=
EXTT27=
EXTT28=
PLAYORDER=
